<svg width="71" height="70" viewBox="0 0 71 70" fill="none" xmlns="http://www.w3.org/2000/svg">
<g filter="url(#filter0_dd_439_1543)">
<path d="M3.65625 34C3.65625 16.3269 17.9831 2 35.6562 2C53.3294 2 67.6562 16.3269 67.6562 34C67.6562 51.6731 53.3294 66 35.6562 66C17.9831 66 3.65625 51.6731 3.65625 34Z" fill="url(#paint0_linear_439_1543)"/>
<g clip-path="url(#clip0_439_1543)">
<g clip-path="url(#clip1_439_1543)">
<path d="M31.4375 19C33.248 19 34.7188 20.4707 34.7188 22.2812V45.7188C34.7188 47.5293 33.248 49 31.4375 49C29.7441 49 28.3496 47.7168 28.1738 46.0645C27.8691 46.1465 27.5469 46.1875 27.2188 46.1875C25.1504 46.1875 23.4688 44.5059 23.4688 42.4375C23.4688 42.0039 23.5449 41.582 23.6797 41.1953C21.9102 40.5273 20.6562 38.8164 20.6562 36.8125C20.6562 34.9434 21.752 33.3262 23.3398 32.5762C22.8301 31.9375 22.5312 31.1289 22.5312 30.25C22.5312 28.4512 23.7969 26.9512 25.4844 26.582C25.3906 26.2598 25.3438 25.9141 25.3438 25.5625C25.3438 23.8105 26.5508 22.334 28.1738 21.9238C28.3496 20.2832 29.7441 19 31.4375 19ZM39.875 19C41.5684 19 42.957 20.2832 43.1387 21.9238C44.7676 22.334 45.9688 23.8047 45.9688 25.5625C45.9688 25.9141 45.9219 26.2598 45.8281 26.582C47.5156 26.9453 48.7812 28.4512 48.7812 30.25C48.7812 31.1289 48.4824 31.9375 47.9727 32.5762C49.5605 33.3262 50.6562 34.9434 50.6562 36.8125C50.6562 38.8164 49.4023 40.5273 47.6328 41.1953C47.7676 41.582 47.8438 42.0039 47.8438 42.4375C47.8438 44.5059 46.1621 46.1875 44.0938 46.1875C43.7656 46.1875 43.4434 46.1465 43.1387 46.0645C42.9629 47.7168 41.5684 49 39.875 49C38.0645 49 36.5938 47.5293 36.5938 45.7188V22.2812C36.5938 20.4707 38.0645 19 39.875 19Z" fill="white"/>
</g>
</g>
</g>
<defs>
<filter id="filter0_dd_439_1543" x="0.65625" y="0" width="70" height="70" filterUnits="userSpaceOnUse" color-interpolation-filters="sRGB">
<feFlood flood-opacity="0" result="BackgroundImageFix"/>
<feColorMatrix in="SourceAlpha" type="matrix" values="0 0 0 0 0 0 0 0 0 0 0 0 0 0 0 0 0 0 127 0" result="hardAlpha"/>
<feOffset dy="1"/>
<feGaussianBlur stdDeviation="1.5"/>
<feColorMatrix type="matrix" values="0 0 0 0 0 0 0 0 0 0 0 0 0 0 0 0 0 0 0.1 0"/>
<feBlend mode="normal" in2="BackgroundImageFix" result="effect1_dropShadow_439_1543"/>
<feColorMatrix in="SourceAlpha" type="matrix" values="0 0 0 0 0 0 0 0 0 0 0 0 0 0 0 0 0 0 127 0" result="hardAlpha"/>
<feOffset dy="1"/>
<feGaussianBlur stdDeviation="1"/>
<feColorMatrix type="matrix" values="0 0 0 0 0 0 0 0 0 0 0 0 0 0 0 0 0 0 0.1 0"/>
<feBlend mode="normal" in2="effect1_dropShadow_439_1543" result="effect2_dropShadow_439_1543"/>
<feBlend mode="normal" in="SourceGraphic" in2="effect2_dropShadow_439_1543" result="shape"/>
</filter>
<linearGradient id="paint0_linear_439_1543" x1="3.65625" y1="34" x2="67.6562" y2="34" gradientUnits="userSpaceOnUse">
<stop stop-color="#4A00E0"/>
<stop offset="1" stop-color="#8E2DE2"/>
</linearGradient>
<clipPath id="clip0_439_1543">
<rect width="30" height="30" fill="white" transform="translate(20.6562 19)"/>
</clipPath>
<clipPath id="clip1_439_1543">
<path d="M20.6562 19H50.6562V49H20.6562V19Z" fill="white"/>
</clipPath>
</defs>
</svg>
