<svg width="41" height="30" viewBox="0 0 41 30" fill="none" xmlns="http://www.w3.org/2000/svg">
<path d="M26.0909 18.75C21.115 18.75 11.1818 21.2437 11.1818 26.25V30H41V26.25C41 21.2437 31.0668 18.75 26.0909 18.75ZM9.31818 11.25V5.625H5.59091V11.25H0V15H5.59091V20.625H9.31818V15H14.9091V11.25M26.0909 15C28.068 15 29.9641 14.2098 31.3621 12.8033C32.7601 11.3968 33.5455 9.48912 33.5455 7.5C33.5455 5.51088 32.7601 3.60322 31.3621 2.1967C29.9641 0.790176 28.068 0 26.0909 0C24.1138 0 22.2177 0.790176 20.8197 2.1967C19.4218 3.60322 18.6364 5.51088 18.6364 7.5C18.6364 9.48912 19.4218 11.3968 20.8197 12.8033C22.2177 14.2098 24.1138 15 26.0909 15Z" fill="url(#paint0_linear_3648_7966)" fill-opacity="0.8"/>
<defs>
<linearGradient id="paint0_linear_3648_7966" x1="41" y1="4.06901e-06" x2="-4.53888" y2="13.1584" gradientUnits="userSpaceOnUse">
<stop stop-color="#7750F2"/>
<stop offset="0.502193" stop-color="#1A237E"/>
<stop offset="1" stop-color="#E150F2"/>
</linearGradient>
</defs>
</svg>
